<?xml version="1.0" encoding="UTF-8" standalone="no"?>
<svg
   xmlns:dc="http://purl.org/dc/elements/1.1/"
   xmlns:cc="http://creativecommons.org/ns#"
   xmlns:rdf="http://www.w3.org/1999/02/22-rdf-syntax-ns#"
   xmlns:svg="http://www.w3.org/2000/svg"
   xmlns="http://www.w3.org/2000/svg"
   viewBox="0 0 152.99126 76.535622"
   height="76.535622"
   width="152.99126"
   xml:space="preserve"
   version="1.1"
   id="svg4136"><metadata
     id="metadata4142"><rdf:RDF><cc:Work
         rdf:about=""><dc:format>image/svg+xml</dc:format><dc:type
           rdf:resource="http://purl.org/dc/dcmitype/StillImage" /><dc:title></dc:title></cc:Work></rdf:RDF></metadata><defs
     id="defs4140"><clipPath
       id="clipPath4150"
       clipPathUnits="userSpaceOnUse"><path
         id="path4152"
         d="m 0,61.228 122.393,0 L 122.393,0 0,0 0,61.228 Z" /></clipPath><clipPath
       id="clipPath4158"
       clipPathUnits="userSpaceOnUse"><path
         id="path4160"
         d="m 0,61.2285 122.393,0 L 122.393,0 0,0 0,61.2285 Z" /></clipPath><clipPath
       id="clipPath4176"
       clipPathUnits="userSpaceOnUse"><path
         id="path4178"
         d="m 0,61.228 122.393,0 L 122.393,0 0,0 0,61.228 Z" /></clipPath></defs><g
     transform="matrix(1.25,0,0,-1.25,0,76.535625)"
     id="g4144"><g
       id="g4146"><g
         clip-path="url(#clipPath4150)"
         id="g4148"><g
           id="g4154"><g
             id="g4156" /><g
             id="g4162"><g
               style="opacity:0"
               id="g4164"
               clip-path="url(#clipPath4158)"><path
                 id="path4166"
                 style="fill:#ffffff;fill-opacity:1;fill-rule:nonzero;stroke:none"
                 d="M 122.393,0 0,0 l 0,61.228 122.393,0 0,-61.228 z" /></g></g></g></g></g><g
       transform="translate(28.0381,41.6341)"
       id="g4168"><path
         id="path4170"
         style="fill:#c81919;fill-opacity:1;fill-rule:nonzero;stroke:none"
         d="m 0,0 0,-26.324 -8.219,0 0,26.324 -9.614,0 0,6.838 27.446,0 L 9.613,0 0,0 Z" /></g><g
       id="g4172"><g
         clip-path="url(#clipPath4176)"
         id="g4174"><g
           transform="translate(68.9628,22.3597)"
           id="g4180"><path
             id="path4182"
             style="fill:#c81919;fill-opacity:1;fill-rule:nonzero;stroke:none"
             d="m 0,0 c -0.689,-1.639 -1.675,-3.044 -2.956,-4.215 -1.282,-1.171 -2.828,-2.085 -4.639,-2.74 -1.811,-0.656 -3.821,-0.984 -6.032,-0.984 -2.244,0 -4.262,0.328 -6.057,0.984 -1.795,0.655 -3.316,1.569 -4.566,2.74 -1.25,1.171 -2.211,2.576 -2.884,4.215 -0.673,1.64 -1.01,3.458 -1.01,5.457 l 0,20.656 8.172,0 0,-20 c 0,-0.906 0.12,-1.765 0.361,-2.576 0.24,-0.813 0.608,-1.539 1.105,-2.179 0.496,-0.64 1.154,-1.147 1.971,-1.522 0.817,-0.375 1.802,-0.562 2.956,-0.562 1.154,0 2.139,0.187 2.956,0.562 0.817,0.375 1.482,0.882 1.995,1.522 0.512,0.64 0.881,1.366 1.105,2.179 0.224,0.811 0.337,1.67 0.337,2.576 l 0,20 8.219,0 0,-20.656 C 1.033,3.458 0.689,1.64 0,0" /></g><g
           transform="translate(75.0822,10.205)"
           id="g4184"><path
             id="path4186"
             style="fill:#c81919;fill-opacity:1;fill-rule:nonzero;stroke:none"
             d="m 0,0 16.664,40.819 -5.952,0 L -5.952,0 0,0 Z" /></g><g
           transform="translate(99.8401,33.8814)"
           id="g4188"><path
             id="path4190"
             style="fill:#c81919;fill-opacity:1;fill-rule:nonzero;stroke:none"
             d="m 0,0 c 2.943,0 5.464,-1.806 6.516,-4.37 l -13.032,0 C -5.464,-1.806 -2.943,0 0,0 m 0,5.373 c -6.857,0 -12.415,-5.559 -12.415,-12.415 0,-6.857 5.558,-12.415 12.415,-12.415 4.4,0 8.896,1.925 11.323,5.394 l -5.631,2.296 C 4.193,-13.429 2.139,-14.085 0,-14.085 c -3.156,0 -5.827,2.076 -6.722,4.937 l 18.956,0 c 0.117,0.685 0.181,1.388 0.181,2.106 C 12.415,-0.186 6.857,5.373 0,5.373" /></g></g></g></g></svg>