<?xml version="1.0" encoding="UTF-8" standalone="no"?>
<svg
   xmlns:dc="http://purl.org/dc/elements/1.1/"
   xmlns:cc="http://creativecommons.org/ns#"
   xmlns:rdf="http://www.w3.org/1999/02/22-rdf-syntax-ns#"
   xmlns:svg="http://www.w3.org/2000/svg"
   xmlns="http://www.w3.org/2000/svg"
   viewBox="0 0 280.62875 76.535622"
   height="76.535622"
   width="280.62875"
   xml:space="preserve"
   version="1.1"
   id="svg4136"><metadata
     id="metadata4142"><rdf:RDF><cc:Work
         rdf:about=""><dc:format>image/svg+xml</dc:format><dc:type
           rdf:resource="http://purl.org/dc/dcmitype/StillImage" /><dc:title></dc:title></cc:Work></rdf:RDF></metadata><defs
     id="defs4140"><clipPath
       id="clipPath4150"
       clipPathUnits="userSpaceOnUse"><path
         id="path4152"
         d="m 0,61.228 224.503,0 L 224.503,0 0,0 0,61.228 Z" /></clipPath><clipPath
       id="clipPath4158"
       clipPathUnits="userSpaceOnUse"><path
         id="path4160"
         d="m 0,61.2285 224.503,0 L 224.503,0 0,0 0,61.2285 Z" /></clipPath><clipPath
       id="clipPath4182"
       clipPathUnits="userSpaceOnUse"><path
         id="path4184"
         d="m 0,61.228 224.503,0 L 224.503,0 0,0 0,61.228 Z" /></clipPath></defs><g
     transform="matrix(1.25,0,0,-1.25,0,76.535625)"
     id="g4144"><g
       id="g4146"><g
         clip-path="url(#clipPath4150)"
         id="g4148"><g
           id="g4154"><g
             id="g4156" /><g
             id="g4162"><g
               style="opacity:0"
               id="g4164"
               clip-path="url(#clipPath4158)"><path
                 id="path4166"
                 style="fill:#ffffff;fill-opacity:1;fill-rule:nonzero;stroke:none"
                 d="M 224.503,0 0,0 l 0,61.228 224.503,0 0,-61.228 z" /></g></g></g></g></g><g
       transform="translate(122.4772,40.8189)"
       id="g4168"><path
         id="path4170"
         style="fill:#c81919;fill-opacity:1;fill-rule:nonzero;stroke:none"
         d="m 0,0 0,7.637 5.141,0 0,-1.553 -3.359,0 0,-1.445 3.175,0 0,-1.478 -3.175,0 0,-1.586 3.553,0 L 5.335,0 0,0 Z" /></g><path
       id="path4172"
       style="fill:#c81919;fill-opacity:1;fill-rule:nonzero;stroke:none"
       d="m 129.309,48.456 1.858,0 0,-7.637 -1.858,0 0,7.637 z" /><g
       transform="translate(137.8022,40.8189)"
       id="g4174"><path
         id="path4176"
         style="fill:#c81919;fill-opacity:1;fill-rule:nonzero;stroke:none"
         d="m 0,0 -3.078,4.994 -0.032,0 L -3.067,0 -4.86,0 l 0,7.637 2.106,0 3.067,-4.983 0.033,0 -0.044,4.983 1.793,0 L 2.095,0 0,0 Z" /></g><g
       id="g4178"><g
         clip-path="url(#clipPath4182)"
         id="g4180"><g
           transform="translate(146.8916,44.659)"
           id="g4186"><path
             id="path4188"
             style="fill:#c81919;fill-opacity:1;fill-rule:nonzero;stroke:none"
             d="m 0,0 c 0,0.432 -0.07,0.789 -0.211,1.073 -0.14,0.284 -0.327,0.511 -0.561,0.68 -0.234,0.169 -0.501,0.289 -0.799,0.361 -0.299,0.072 -0.607,0.108 -0.924,0.108 l -0.918,0 0,-4.465 0.875,0 c 0.331,0 0.65,0.037 0.956,0.113 0.306,0.075 0.576,0.199 0.81,0.372 0.234,0.172 0.421,0.402 0.561,0.69 C -0.07,-0.78 0,-0.424 0,0 M 1.922,0 C 1.922,-0.669 1.798,-1.246 1.55,-1.731 1.301,-2.217 0.974,-2.616 0.567,-2.929 0.16,-3.241 -0.299,-3.472 -0.81,-3.619 -1.321,-3.766 -1.84,-3.84 -2.365,-3.84 l -2.851,0 0,7.637 2.764,0 c 0.54,0 1.073,-0.063 1.599,-0.189 C -0.328,3.482 0.14,3.274 0.551,2.983 0.961,2.691 1.292,2.301 1.544,1.812 1.796,1.323 1.922,0.719 1.922,0" /></g><g
           transform="translate(155.0237,40.8189)"
           id="g4190"><path
             id="path4192"
             style="fill:#c81919;fill-opacity:1;fill-rule:nonzero;stroke:none"
             d="m 0,0 0,3.193 -2.981,0 0,-3.193 -1.847,0 0,7.637 1.847,0 0,-2.891 2.981,0 0,2.891 1.847,0 L 1.847,0 0,0 Z" /></g><g
           transform="translate(164.6314,44.67)"
           id="g4194"><path
             id="path4196"
             style="fill:#c81919;fill-opacity:1;fill-rule:nonzero;stroke:none"
             d="M 0,0 C 0,0.331 -0.054,0.64 -0.162,0.928 -0.27,1.215 -0.42,1.462 -0.61,1.666 -0.801,1.871 -1.031,2.033 -1.301,2.152 -1.571,2.271 -1.868,2.33 -2.192,2.33 -2.516,2.33 -2.812,2.271 -3.078,2.152 -3.345,2.033 -3.575,1.871 -3.769,1.666 -3.964,1.462 -4.113,1.215 -4.217,0.928 -4.322,0.64 -4.374,0.331 -4.374,0 c 0,-0.345 0.054,-0.663 0.162,-0.955 0.108,-0.291 0.257,-0.541 0.448,-0.749 0.191,-0.209 0.419,-0.373 0.686,-0.491 0.266,-0.119 0.562,-0.178 0.886,-0.178 0.324,0 0.619,0.059 0.885,0.178 0.267,0.118 0.497,0.282 0.691,0.491 0.195,0.208 0.346,0.458 0.454,0.749 C -0.054,-0.663 0,-0.345 0,0 m 1.976,0 c 0,-0.604 -0.104,-1.156 -0.313,-1.656 -0.209,-0.5 -0.498,-0.928 -0.869,-1.284 -0.371,-0.356 -0.812,-0.631 -1.323,-0.825 -0.511,-0.194 -1.066,-0.291 -1.663,-0.291 -0.598,0 -1.151,0.097 -1.658,0.291 -0.508,0.194 -0.947,0.469 -1.318,0.825 -0.371,0.356 -0.661,0.784 -0.869,1.284 -0.209,0.5 -0.313,1.052 -0.313,1.656 0,0.611 0.104,1.163 0.313,1.656 0.208,0.492 0.498,0.911 0.869,1.257 0.371,0.345 0.81,0.611 1.318,0.798 0.507,0.187 1.06,0.28 1.658,0.28 0.597,0 1.152,-0.093 1.663,-0.28 C -0.018,3.524 0.423,3.258 0.794,2.913 1.165,2.567 1.454,2.148 1.663,1.656 1.872,1.163 1.976,0.611 1.976,0" /></g><g
           transform="translate(171.5262,40.8189)"
           id="g4198"><path
             id="path4200"
             style="fill:#c81919;fill-opacity:1;fill-rule:nonzero;stroke:none"
             d="m 0,0 -1.847,0 -2.894,7.637 2.073,0 1.772,-5.415 0.043,0 1.76,5.415 2.041,0 L 0,0 Z" /></g><g
           transform="translate(175.3557,40.8189)"
           id="g4202"><path
             id="path4204"
             style="fill:#c81919;fill-opacity:1;fill-rule:nonzero;stroke:none"
             d="m 0,0 0,7.637 5.141,0 0,-1.553 -3.359,0 0,-1.445 3.175,0 0,-1.478 -3.175,0 0,-1.586 3.553,0 L 5.335,0 0,0 Z" /></g><g
           transform="translate(187.038,40.8189)"
           id="g4206"><path
             id="path4208"
             style="fill:#c81919;fill-opacity:1;fill-rule:nonzero;stroke:none"
             d="m 0,0 -3.078,4.994 -0.032,0 L -3.067,0 -4.86,0 l 0,7.637 2.106,0 3.067,-4.983 0.033,0 -0.044,4.983 1.793,0 L 2.095,0 0,0 Z" /></g><g
           transform="translate(126.484,21.3692)"
           id="g4210"><path
             id="path4212"
             style="fill:#c81919;fill-opacity:1;fill-rule:nonzero;stroke:none"
             d="m 0,0 0,-6.062 -1.847,0 0,6.062 -2.16,0 0,1.575 6.167,0 L 2.16,0 0,0 Z" /></g><g
           transform="translate(129.6353,15.3069)"
           id="g4214"><path
             id="path4216"
             style="fill:#c81919;fill-opacity:1;fill-rule:nonzero;stroke:none"
             d="m 0,0 0,7.637 5.141,0 0,-1.553 -3.359,0 0,-1.445 3.175,0 0,-1.478 -3.175,0 0,-1.586 3.553,0 L 5.335,0 0,0 Z" /></g><g
           transform="translate(141.8036,15.4416)"
           id="g4218"><path
             id="path4220"
             style="fill:#c81919;fill-opacity:1;fill-rule:nonzero;stroke:none"
             d="m 0,0 c -0.497,-0.226 -1.069,-0.34 -1.717,-0.34 -0.591,0 -1.136,0.098 -1.636,0.291 -0.501,0.195 -0.935,0.47 -1.302,0.826 -0.367,0.356 -0.655,0.782 -0.864,1.278 -0.209,0.496 -0.313,1.043 -0.313,1.64 0,0.611 0.106,1.165 0.319,1.661 0.212,0.496 0.505,0.919 0.88,1.267 0.374,0.349 0.813,0.617 1.317,0.804 0.504,0.187 1.048,0.28 1.631,0.28 0.54,0 1.071,-0.095 1.593,-0.285 C 0.43,7.231 0.853,6.952 1.177,6.586 L -0.076,5.334 c -0.172,0.238 -0.399,0.414 -0.68,0.529 -0.281,0.115 -0.569,0.173 -0.864,0.173 -0.324,0 -0.621,-0.06 -0.891,-0.179 C -2.781,5.739 -3.013,5.575 -3.208,5.367 -3.402,5.158 -3.553,4.912 -3.661,4.628 -3.769,4.344 -3.823,4.033 -3.823,3.695 c 0,-0.345 0.054,-0.662 0.162,-0.949 0.108,-0.288 0.257,-0.534 0.448,-0.739 0.191,-0.206 0.419,-0.366 0.686,-0.481 0.266,-0.115 0.558,-0.172 0.875,-0.172 0.367,0 0.687,0.072 0.961,0.216 0.273,0.144 0.493,0.33 0.659,0.561 L 1.253,0.923 C 0.914,0.534 0.497,0.227 0,0" /></g><g
           transform="translate(148.8495,15.3069)"
           id="g4222"><path
             id="path4224"
             style="fill:#c81919;fill-opacity:1;fill-rule:nonzero;stroke:none"
             d="m 0,0 0,3.193 -2.981,0 0,-3.193 -1.847,0 0,7.637 1.847,0 0,-2.891 2.981,0 0,2.891 1.847,0 L 1.847,0 0,0 Z" /></g><g
           transform="translate(157.3394,15.3069)"
           id="g4226"><path
             id="path4228"
             style="fill:#c81919;fill-opacity:1;fill-rule:nonzero;stroke:none"
             d="m 0,0 -3.078,4.994 -0.032,0 L -3.067,0 -4.86,0 l 0,7.637 2.106,0 3.067,-4.983 0.033,0 -0.044,4.983 1.793,0 L 2.095,0 0,0 Z" /></g><g
           transform="translate(167.189,19.1579)"
           id="g4230"><path
             id="path4232"
             style="fill:#c81919;fill-opacity:1;fill-rule:nonzero;stroke:none"
             d="M 0,0 C 0,0.331 -0.054,0.64 -0.162,0.928 -0.27,1.215 -0.42,1.462 -0.61,1.666 -0.801,1.871 -1.031,2.033 -1.301,2.152 -1.571,2.271 -1.868,2.33 -2.192,2.33 -2.516,2.33 -2.812,2.271 -3.078,2.152 -3.345,2.033 -3.575,1.871 -3.769,1.666 -3.964,1.462 -4.113,1.215 -4.217,0.928 -4.322,0.64 -4.374,0.331 -4.374,0 c 0,-0.345 0.054,-0.663 0.162,-0.955 0.108,-0.291 0.257,-0.541 0.448,-0.749 0.191,-0.209 0.419,-0.373 0.686,-0.491 0.266,-0.119 0.562,-0.178 0.886,-0.178 0.324,0 0.619,0.059 0.885,0.178 0.267,0.118 0.497,0.282 0.691,0.491 0.195,0.208 0.346,0.458 0.454,0.749 C -0.054,-0.663 0,-0.345 0,0 m 1.976,0 c 0,-0.604 -0.104,-1.156 -0.313,-1.656 -0.209,-0.5 -0.498,-0.928 -0.869,-1.284 -0.371,-0.356 -0.812,-0.631 -1.323,-0.825 -0.511,-0.194 -1.066,-0.291 -1.663,-0.291 -0.598,0 -1.151,0.097 -1.658,0.291 -0.508,0.194 -0.947,0.469 -1.318,0.825 -0.371,0.356 -0.661,0.784 -0.869,1.284 -0.209,0.5 -0.313,1.052 -0.313,1.656 0,0.611 0.104,1.163 0.313,1.656 0.208,0.492 0.498,0.911 0.869,1.257 0.371,0.345 0.81,0.611 1.318,0.798 0.507,0.187 1.06,0.28 1.658,0.28 0.597,0 1.152,-0.093 1.663,-0.28 C -0.018,3.524 0.423,3.258 0.794,2.913 1.165,2.567 1.454,2.148 1.663,1.656 1.872,1.163 1.976,0.611 1.976,0" /></g><g
           transform="translate(170.5542,15.3069)"
           id="g4234"><path
             id="path4236"
             style="fill:#c81919;fill-opacity:1;fill-rule:nonzero;stroke:none"
             d="m 0,0 0,7.637 1.858,0 0,-6.03 2.959,0 L 4.817,0 0,0 Z" /></g><g
           transform="translate(182.2711,19.1579)"
           id="g4238"><path
             id="path4240"
             style="fill:#c81919;fill-opacity:1;fill-rule:nonzero;stroke:none"
             d="M 0,0 C 0,0.331 -0.054,0.64 -0.162,0.928 -0.27,1.215 -0.42,1.462 -0.61,1.666 -0.801,1.871 -1.031,2.033 -1.301,2.152 -1.571,2.271 -1.868,2.33 -2.192,2.33 -2.516,2.33 -2.812,2.271 -3.078,2.152 -3.345,2.033 -3.575,1.871 -3.769,1.666 -3.964,1.462 -4.113,1.215 -4.217,0.928 -4.322,0.64 -4.374,0.331 -4.374,0 c 0,-0.345 0.054,-0.663 0.162,-0.955 0.108,-0.291 0.257,-0.541 0.448,-0.749 0.191,-0.209 0.419,-0.373 0.686,-0.491 0.266,-0.119 0.562,-0.178 0.886,-0.178 0.324,0 0.619,0.059 0.885,0.178 0.267,0.118 0.497,0.282 0.691,0.491 0.195,0.208 0.346,0.458 0.454,0.749 C -0.054,-0.663 0,-0.345 0,0 m 1.976,0 c 0,-0.604 -0.104,-1.156 -0.313,-1.656 -0.209,-0.5 -0.498,-0.928 -0.869,-1.284 -0.371,-0.356 -0.812,-0.631 -1.323,-0.825 -0.511,-0.194 -1.066,-0.291 -1.663,-0.291 -0.598,0 -1.151,0.097 -1.658,0.291 -0.508,0.194 -0.947,0.469 -1.318,0.825 -0.371,0.356 -0.661,0.784 -0.869,1.284 -0.209,0.5 -0.313,1.052 -0.313,1.656 0,0.611 0.104,1.163 0.313,1.656 0.208,0.492 0.498,0.911 0.869,1.257 0.371,0.345 0.81,0.611 1.318,0.798 0.507,0.187 1.06,0.28 1.658,0.28 0.597,0 1.152,-0.093 1.663,-0.28 C -0.018,3.524 0.423,3.258 0.794,2.913 1.165,2.567 1.454,2.148 1.663,1.656 1.872,1.163 1.976,0.611 1.976,0" /></g><g
           transform="translate(191.0859,15.2962)"
           id="g4242"><path
             id="path4244"
             style="fill:#c81919;fill-opacity:1;fill-rule:nonzero;stroke:none"
             d="m 0,0 c -0.5,-0.122 -1.046,-0.184 -1.636,-0.184 -0.612,0 -1.176,0.098 -1.69,0.292 -0.515,0.194 -0.958,0.467 -1.329,0.82 -0.371,0.352 -0.66,0.774 -0.869,1.267 -0.209,0.493 -0.313,1.041 -0.313,1.645 0,0.611 0.106,1.165 0.318,1.661 0.213,0.496 0.506,0.919 0.88,1.268 0.375,0.348 0.814,0.616 1.318,0.803 0.504,0.187 1.048,0.281 1.631,0.281 0.605,0 1.166,-0.092 1.685,-0.275 C 0.513,7.395 0.934,7.148 1.258,6.839 L 0.092,5.512 c -0.18,0.209 -0.418,0.379 -0.713,0.512 -0.295,0.133 -0.63,0.2 -1.004,0.2 -0.324,0 -0.623,-0.059 -0.897,-0.178 C -2.795,5.927 -3.033,5.762 -3.235,5.55 -3.436,5.338 -3.593,5.086 -3.704,4.795 -3.816,4.504 -3.872,4.185 -3.872,3.84 c 0,-0.352 0.051,-0.676 0.151,-0.971 0.101,-0.295 0.251,-0.548 0.449,-0.76 0.198,-0.212 0.442,-0.378 0.734,-0.496 0.292,-0.119 0.625,-0.178 0.999,-0.178 0.216,0 0.421,0.016 0.616,0.048 0.194,0.032 0.374,0.085 0.54,0.157 l 0,1.391 -1.458,0 0,1.489 3.153,0 0,-4.045 C 0.938,0.28 0.5,0.122 0,0" /></g><g
           transform="translate(197.7074,18.543)"
           id="g4246"><path
             id="path4248"
             style="fill:#c81919;fill-opacity:1;fill-rule:nonzero;stroke:none"
             d="m 0,0 0,-3.236 -1.847,0 0,3.236 -2.873,4.401 2.236,0 1.631,-2.826 1.631,2.826 2.16,0 L 0,0 Z" /></g><g
           transform="translate(128.8005,29.6865)"
           id="g4250"><path
             id="path4252"
             style="fill:#c81919;fill-opacity:1;fill-rule:nonzero;stroke:none"
             d="m 0,0 c -0.155,-0.378 -0.376,-0.701 -0.664,-0.971 -0.288,-0.27 -0.636,-0.48 -1.042,-0.631 -0.407,-0.151 -0.859,-0.226 -1.356,-0.226 -0.504,0 -0.958,0.075 -1.361,0.226 -0.403,0.151 -0.745,0.361 -1.026,0.631 -0.281,0.27 -0.496,0.593 -0.648,0.971 -0.151,0.377 -0.227,0.796 -0.227,1.257 l 0,4.757 1.837,0 0,-4.606 c 0,-0.209 0.027,-0.407 0.081,-0.594 0.054,-0.187 0.136,-0.354 0.248,-0.501 0.111,-0.148 0.259,-0.264 0.443,-0.351 0.183,-0.086 0.405,-0.129 0.664,-0.129 0.259,0 0.481,0.043 0.664,0.129 0.184,0.087 0.333,0.203 0.448,0.351 0.115,0.147 0.198,0.314 0.249,0.501 0.05,0.187 0.075,0.385 0.075,0.594 l 0,4.606 1.847,0 0,-4.757 C 0.232,0.796 0.155,0.377 0,0" /></g><g
           transform="translate(135.6076,28.0629)"
           id="g4254"><path
             id="path4256"
             style="fill:#c81919;fill-opacity:1;fill-rule:nonzero;stroke:none"
             d="m 0,0 -3.078,4.994 -0.032,0 L -3.067,0 -4.86,0 l 0,7.637 2.106,0 3.067,-4.983 0.033,0 -0.044,4.983 1.793,0 L 2.095,0 0,0 Z" /></g><path
           id="path4258"
           style="fill:#c81919;fill-opacity:1;fill-rule:nonzero;stroke:none"
           d="m 139.478,35.7 1.858,0 0,-7.637 -1.858,0 0,7.637 z" /><g
           transform="translate(146.9583,28.0629)"
           id="g4260"><path
             id="path4262"
             style="fill:#c81919;fill-opacity:1;fill-rule:nonzero;stroke:none"
             d="m 0,0 -1.847,0 -2.894,7.637 2.073,0 1.772,-5.415 0.043,0 1.76,5.415 2.041,0 L 0,0 Z" /></g><g
           transform="translate(150.7879,28.0629)"
           id="g4264"><path
             id="path4266"
             style="fill:#c81919;fill-opacity:1;fill-rule:nonzero;stroke:none"
             d="m 0,0 0,7.637 5.141,0 0,-1.553 -3.359,0 0,-1.445 3.175,0 0,-1.478 -3.175,0 0,-1.586 3.553,0 L 5.335,0 0,0 Z" /></g><g
           transform="translate(161.6277,33.3593)"
           id="g4268"><path
             id="path4270"
             style="fill:#c81919;fill-opacity:1;fill-rule:nonzero;stroke:none"
             d="M 0,0 C 0,0.18 -0.038,0.325 -0.114,0.437 -0.19,0.548 -0.288,0.635 -0.407,0.696 -0.527,0.757 -0.66,0.798 -0.809,0.82 -0.957,0.841 -1.1,0.852 -1.237,0.852 l -0.988,0 0,-1.78 0.879,0 c 0.152,0 0.308,0.013 0.467,0.038 0.159,0.025 0.304,0.07 0.434,0.135 0.13,0.065 0.237,0.158 0.32,0.28 C -0.042,-0.352 0,-0.194 0,0 m 0.076,-5.296 -1.66,3.031 -0.63,0 0,-3.031 -1.804,0 0,7.637 2.916,0 c 0.368,0 0.726,-0.038 1.075,-0.113 C 0.322,2.152 0.635,2.024 0.913,1.845 1.19,1.665 1.411,1.428 1.577,1.133 1.742,0.838 1.825,0.471 1.825,0.033 1.825,-0.485 1.685,-0.92 1.404,-1.273 1.123,-1.625 0.734,-1.877 0.238,-2.028 l 1.998,-3.268 -2.16,0 z" /></g><g
           transform="translate(169.0258,33.7154)"
           id="g4272"><path
             id="path4274"
             style="fill:#c81919;fill-opacity:1;fill-rule:nonzero;stroke:none"
             d="m 0,0 c -0.158,0.201 -0.365,0.361 -0.621,0.48 -0.256,0.119 -0.502,0.178 -0.74,0.178 -0.122,0 -0.246,-0.011 -0.372,-0.032 C -1.859,0.604 -1.973,0.562 -2.074,0.502 -2.174,0.44 -2.259,0.361 -2.327,0.264 -2.396,0.167 -2.43,0.043 -2.43,-0.108 c 0,-0.129 0.027,-0.237 0.081,-0.324 0.054,-0.086 0.133,-0.161 0.238,-0.226 0.104,-0.065 0.228,-0.124 0.372,-0.178 0.144,-0.054 0.306,-0.11 0.486,-0.167 0.259,-0.086 0.529,-0.182 0.81,-0.286 0.281,-0.105 0.537,-0.243 0.767,-0.415 0.23,-0.173 0.421,-0.387 0.572,-0.642 0.152,-0.256 0.227,-0.574 0.227,-0.955 0,-0.439 -0.081,-0.818 -0.243,-1.138 -0.162,-0.32 -0.38,-0.584 -0.653,-0.793 -0.274,-0.209 -0.587,-0.363 -0.94,-0.464 -0.353,-0.1 -0.716,-0.151 -1.091,-0.151 -0.547,0 -1.076,0.096 -1.587,0.286 -0.512,0.191 -0.936,0.462 -1.275,0.815 l 1.21,1.229 c 0.187,-0.23 0.434,-0.422 0.74,-0.577 0.306,-0.155 0.61,-0.232 0.912,-0.232 0.137,0 0.27,0.015 0.4,0.043 0.13,0.029 0.243,0.076 0.34,0.141 0.097,0.064 0.175,0.151 0.232,0.259 0.058,0.107 0.087,0.237 0.087,0.388 0,0.144 -0.036,0.266 -0.108,0.367 -0.072,0.1 -0.175,0.192 -0.308,0.275 -0.133,0.082 -0.299,0.158 -0.497,0.226 -0.198,0.069 -0.423,0.142 -0.675,0.221 -0.245,0.079 -0.484,0.173 -0.718,0.281 -0.234,0.108 -0.443,0.246 -0.626,0.415 -0.184,0.169 -0.332,0.374 -0.443,0.615 -0.112,0.241 -0.168,0.534 -0.168,0.879 0,0.424 0.087,0.788 0.26,1.09 0.172,0.302 0.399,0.55 0.68,0.744 0.281,0.194 0.598,0.336 0.95,0.426 0.353,0.09 0.709,0.135 1.07,0.135 0.432,0 0.873,-0.079 1.323,-0.237 C 0.445,1.783 0.839,1.55 1.177,1.24 L 0,0 Z" /></g><path
           id="path4276"
           style="fill:#c81919;fill-opacity:1;fill-rule:nonzero;stroke:none"
           d="m 171.559,35.7 1.858,0 0,-7.637 -1.858,0 0,7.637 z" /><g
           transform="translate(178.4086,34.1252)"
           id="g4278"><path
             id="path4280"
             style="fill:#c81919;fill-opacity:1;fill-rule:nonzero;stroke:none"
             d="m 0,0 0,-6.062 -1.847,0 0,6.062 -2.16,0 0,1.575 6.167,0 L 2.16,0 0,0 Z" /></g><g
           transform="translate(185.7967,31.2991)"
           id="g4282"><path
             id="path4284"
             style="fill:#c81919;fill-opacity:1;fill-rule:nonzero;stroke:none"
             d="m 0,0 0,-3.236 -1.847,0 0,3.236 -2.873,4.401 2.236,0 1.631,-2.826 1.631,2.826 2.16,0 L 0,0 Z" /></g><g
           transform="translate(198.4327,31.914)"
           id="g4286"><path
             id="path4288"
             style="fill:#c81919;fill-opacity:1;fill-rule:nonzero;stroke:none"
             d="M 0,0 C 0,0.331 -0.054,0.64 -0.162,0.928 -0.27,1.215 -0.42,1.462 -0.61,1.666 -0.801,1.871 -1.031,2.033 -1.301,2.152 -1.571,2.271 -1.868,2.33 -2.192,2.33 -2.516,2.33 -2.812,2.271 -3.078,2.152 -3.344,2.033 -3.575,1.871 -3.769,1.666 -3.964,1.462 -4.113,1.215 -4.217,0.928 -4.322,0.64 -4.374,0.331 -4.374,0 c 0,-0.345 0.054,-0.663 0.162,-0.955 0.108,-0.291 0.257,-0.541 0.448,-0.749 0.191,-0.209 0.42,-0.373 0.686,-0.491 0.266,-0.119 0.562,-0.178 0.886,-0.178 0.324,0 0.619,0.059 0.885,0.178 0.267,0.118 0.497,0.282 0.691,0.491 0.195,0.208 0.346,0.458 0.454,0.749 C -0.054,-0.663 0,-0.345 0,0 m 1.976,0 c 0,-0.604 -0.104,-1.156 -0.313,-1.656 -0.209,-0.5 -0.498,-0.928 -0.869,-1.283 -0.371,-0.357 -0.812,-0.632 -1.323,-0.826 -0.511,-0.194 -1.066,-0.291 -1.663,-0.291 -0.598,0 -1.151,0.097 -1.658,0.291 -0.508,0.194 -0.947,0.469 -1.318,0.826 -0.371,0.355 -0.661,0.783 -0.869,1.283 -0.209,0.5 -0.313,1.052 -0.313,1.656 0,0.611 0.104,1.163 0.313,1.656 0.208,0.492 0.498,0.911 0.869,1.257 0.371,0.345 0.81,0.611 1.318,0.798 0.507,0.187 1.06,0.28 1.658,0.28 0.597,0 1.152,-0.093 1.663,-0.28 C -0.018,3.524 0.423,3.258 0.794,2.913 1.165,2.567 1.454,2.148 1.663,1.656 1.872,1.163 1.976,0.611 1.976,0" /></g><g
           transform="translate(203.6232,34.1252)"
           id="g4290"><path
             id="path4292"
             style="fill:#c81919;fill-opacity:1;fill-rule:nonzero;stroke:none"
             d="m 0,0 0,-1.575 2.959,0 0,-1.521 -2.959,0 0,-2.966 -1.825,0 0,7.637 5.033,0 L 3.208,0 0,0 Z" /></g><g
           transform="translate(28.0381,41.6341)"
           id="g4294"><path
             id="path4296"
             style="fill:#c81919;fill-opacity:1;fill-rule:nonzero;stroke:none"
             d="m 0,0 0,-26.324 -8.219,0 0,26.324 -9.614,0 0,6.838 27.446,0 L 9.613,0 0,0 Z" /></g><g
           transform="translate(68.9628,22.3597)"
           id="g4298"><path
             id="path4300"
             style="fill:#c81919;fill-opacity:1;fill-rule:nonzero;stroke:none"
             d="m 0,0 c -0.689,-1.639 -1.675,-3.044 -2.956,-4.215 -1.282,-1.171 -2.828,-2.085 -4.639,-2.74 -1.811,-0.656 -3.821,-0.984 -6.032,-0.984 -2.244,0 -4.262,0.328 -6.057,0.984 -1.795,0.655 -3.316,1.569 -4.566,2.74 -1.25,1.171 -2.211,2.576 -2.884,4.215 -0.673,1.64 -1.01,3.458 -1.01,5.457 l 0,20.656 8.172,0 0,-20 c 0,-0.906 0.12,-1.765 0.361,-2.576 0.24,-0.813 0.608,-1.539 1.105,-2.179 0.496,-0.64 1.154,-1.147 1.971,-1.522 0.817,-0.375 1.802,-0.562 2.956,-0.562 1.154,0 2.139,0.187 2.956,0.562 0.817,0.375 1.482,0.882 1.995,1.522 0.512,0.64 0.881,1.366 1.105,2.179 0.224,0.811 0.337,1.67 0.337,2.576 l 0,20 8.219,0 0,-20.656 C 1.033,3.458 0.689,1.64 0,0" /></g><g
           transform="translate(75.0822,10.205)"
           id="g4302"><path
             id="path4304"
             style="fill:#c81919;fill-opacity:1;fill-rule:nonzero;stroke:none"
             d="m 0,0 16.664,40.819 -5.952,0 L -5.952,0 0,0 Z" /></g><g
           transform="translate(99.8401,33.8814)"
           id="g4306"><path
             id="path4308"
             style="fill:#c81919;fill-opacity:1;fill-rule:nonzero;stroke:none"
             d="m 0,0 c 2.943,0 5.464,-1.806 6.516,-4.37 l -13.032,0 C -5.464,-1.806 -2.943,0 0,0 m 0,5.373 c -6.857,0 -12.415,-5.559 -12.415,-12.415 0,-6.857 5.558,-12.415 12.415,-12.415 4.4,0 8.896,1.925 11.323,5.394 l -5.631,2.296 C 4.193,-13.429 2.139,-14.085 0,-14.085 c -3.156,0 -5.827,2.076 -6.722,4.937 l 18.956,0 c 0.117,0.685 0.181,1.388 0.181,2.106 C 12.415,-0.186 6.857,5.373 0,5.373" /></g></g></g></g></svg>